# xmcd
#
# Track frame offsets: 
#        150
#        12167
#        23350
#        34770
#        46133
#        57200
#        70017
#        82521
#        95264
#        108015
#        118718
#        129494
#        140016
#        151782
#        163224
#        175016
#        185695
#        197809
#        209433
#        220409
#
# Disc length: 3089 seconds
#
# Revision: 0
# Processed by: cddbd v1.5.2PL0 Copyright (c) Steve Scherf et al.
# Submitted via: ExactAudioCopy v1.0b3
#
DISCID=020c0f14
DTITLE=Reeves, Jim - Legends Of Country Music [Disc 2]
DYEAR=2008
DGENRE=Country
TTITLE0=Mexican Joe
TTITLE1=El Rancho Del Rio
TTITLE2=It's Hard To Love Just One
TTITLE3=Gypsy Heart
TTITLE4=Then I'll Stop Loving You
TTITLE5=Butterfly Love
TTITLE6=Let Me Love You Just A Little
TTITLE7=Bimbo
TTITLE8=Echo Bonita
TTITLE9=Hillbilly Waltz
TTITLE10=Let Me Remember (Things I Can't Forget)
TTITLE11=My Rambling Heart
TTITLE12=Padre Of Old San Antone
TTITLE13=Penny Candy
TTITLE14=I'll Follow You
TTITLE15=Where Does A Broken Heart Go?
TTITLE16=The Wilder Your Heart Beats The Sweeter You Love
TTITLE17=Give Me One More Kiss
TTITLE18=Red Eyed And Rowdy
TTITLE19=Reeves, Jim with Ginny Wright - I Love You
EXTD=
EXTT0=
EXTT1=
EXTT2=
EXTT3=
EXTT4=
EXTT5=
EXTT6=
EXTT7=
EXTT8=
EXTT9=
EXTT10=
EXTT11=
EXTT12=
EXTT13=
EXTT14=
EXTT15=
EXTT16=
EXTT17=
EXTT18=
EXTT19=
PLAYORDER=
